<svg width="34" height="34" viewBox="0 0 34 34" fill="none" xmlns="http://www.w3.org/2000/svg">
<mask id="mask0_5_844" style="mask-type:luminance" maskUnits="userSpaceOnUse" x="0" y="0" width="34" height="34">
<path d="M34 0H0V34H34V0Z" fill="white"/>
</mask>
<g mask="url(#mask0_5_844)">
<mask id="mask1_5_844" style="mask-type:luminance" maskUnits="userSpaceOnUse" x="0" y="0" width="34" height="34">
<path d="M0 0H34V34H0V0Z" fill="white"/>
</mask>
<g mask="url(#mask1_5_844)">
<path d="M6.375 21.7812H4.68031C2.8143 21.7812 1.27168 20.3934 1.02996 18.5938C1.00738 18.4311 0.996094 18.2657 0.996094 18.097V15.4062H10.1442H13.9453H22.3125L33.0039 16.4688V18.097C33.0039 20.1324 31.3517 21.7812 29.3197 21.7812H27.625" stroke="#050B20" stroke-width="2" stroke-miterlimit="10" stroke-linecap="round" stroke-linejoin="round"/>
<path d="M23.375 21.7812H15.2914H10.625" stroke="#050B20" stroke-width="2" stroke-miterlimit="10" stroke-linecap="round" stroke-linejoin="round"/>
<path d="M10.625 21.7812C10.625 22.9547 9.6736 23.9062 8.5 23.9062C7.3264 23.9062 6.375 22.9547 6.375 21.7812C6.375 20.6077 7.3264 19.6562 8.5 19.6562C9.6736 19.6562 10.625 20.6077 10.625 21.7812Z" stroke="#050B20" stroke-width="2" stroke-miterlimit="10" stroke-linecap="round" stroke-linejoin="round"/>
<path d="M27.625 21.7812C27.625 22.9547 26.6736 23.9062 25.5 23.9062C24.3264 23.9062 23.375 22.9547 23.375 21.7812C23.375 20.6077 24.3264 19.6562 25.5 19.6562C26.6736 19.6562 27.625 20.6077 27.625 21.7812Z" stroke="#050B20" stroke-width="2" stroke-miterlimit="10" stroke-linecap="round" stroke-linejoin="round"/>
<path d="M2.65754 18.5938H1.03125" stroke="#050B20" stroke-width="2" stroke-miterlimit="10" stroke-linecap="round" stroke-linejoin="round"/>
<path d="M10.144 15.4062L9.60341 12.8436C9.39026 11.8389 10.0311 10.8514 11.0358 10.6383C12.0405 10.4245 13.028 11.0659 13.2411 12.07C14.1289 16.2735 13.6724 14.1113 15.2911 21.7812" stroke="#050B20" stroke-width="2" stroke-miterlimit="10" stroke-linecap="round" stroke-linejoin="round"/>
<path d="M22.3125 15.4062L20.1875 10.0938" stroke="#050B20" stroke-width="2" stroke-miterlimit="10" stroke-linecap="round" stroke-linejoin="round"/>
<path d="M0.996094 15.4062C2.00593 13.1443 4.25153 11.6875 6.72875 11.6875H9.7292" stroke="#050B20" stroke-width="2" stroke-miterlimit="10" stroke-linecap="round" stroke-linejoin="round"/>
</g>
</g>
</svg>
